<svg width="48" height="10" viewBox="0 0 48 10" fill="none" xmlns="http://www.w3.org/2000/svg">
<path d="M0.451172 1.79688V0.101562H8.55859V1.79688H5.52344V10H3.48633V1.79688H0.451172ZM9.55008 10V0.101562H16.1946V1.79688H11.6009V4.20312H15.8528V5.89844H11.6009V8.30469H16.2083V10H9.55008ZM19.1685 10H16.9537L20.3853 0.101562H23.024L26.442 10H24.2408L23.5025 7.7168H19.9205L19.1685 10ZM20.44 6.11719H22.983L21.7388 2.33008H21.6705L20.44 6.11719ZM27.283 0.101562H29.826L32.5741 6.81445H32.6834L35.4315 0.101562H37.9745V10H35.9784V3.51953H35.8963L33.3123 9.95898H31.9452L29.3612 3.49219H29.2791V10H27.283V0.101562ZM39.1437 8.25V6.62305L43.3273 0.101562H45.9113V6.5957H47.1691V8.25H45.9113V10H43.9562V8.25H39.1437ZM41.2218 6.5957H43.9835V2.35742H43.8878L41.2218 6.51367V6.5957Z" fill="#659B85"/>
</svg>
