<svg width="134" height="29" viewBox="0 0 134 29" fill="none" xmlns="http://www.w3.org/2000/svg">
<path d="M0.289062 5.5625V0.71875H23.4531V5.5625H14.7812V29H8.96094V5.5625H0.289062ZM26.2859 29V0.71875H45.2703V5.5625H32.1453V12.4375H44.2938V17.2812H32.1453V24.1562H45.3094V29H26.2859ZM53.7672 29H47.4391L57.2438 0.71875H64.7828L74.5484 29H68.2594L66.15 22.4766H55.9156L53.7672 29ZM57.4 17.9062H64.6656L61.1109 7.08594H60.9156L57.4 17.9062ZM76.9516 0.71875H84.2172L92.0687 19.8984H92.3812L100.233 0.71875H107.498V29H101.795V10.4844H101.561L94.1781 28.8828H90.2719L82.8891 10.4062H82.6547V29H76.9516V0.71875ZM110.839 24V19.3516L122.792 0.71875H130.175V19.2734H133.769V24H130.175V29H124.589V24H110.839ZM116.777 19.2734H124.667V7.16406H124.394L116.777 19.0391V19.2734Z" fill="#659B85"/>
</svg>
